<svg width="72" height="72" viewBox="0 0 72 72" fill="none" xmlns="http://www.w3.org/2000/svg">
<path d="M32.52 40.6199H28.02C24.57 40.6199 21.78 37.7399 21.78 34.1699C21.78 32.9399 22.8 31.9199 24.03 31.9199C25.26 31.9199 26.28 32.9399 26.28 34.1699C26.28 35.2499 27.06 36.1199 28.02 36.1199H32.52C33.21 36.1199 33.75 35.4899 33.75 34.7099C33.75 33.6599 33.57 33.5999 32.88 33.3599L25.65 30.8399C23.04 29.9399 21.75 28.1099 21.75 25.2599C21.75 22.0199 24.33 19.3499 27.48 19.3499H31.98C35.43 19.3499 38.22 22.2299 38.22 25.7999C38.22 27.0299 37.2 28.0499 35.97 28.0499C34.74 28.0499 33.72 27.0299 33.72 25.7999C33.72 24.7199 32.94 23.8499 31.98 23.8499H27.48C26.79 23.8499 26.25 24.4799 26.25 25.2599C26.25 26.3099 26.43 26.3699 27.12 26.6099L34.35 29.1299C36.96 30.0599 38.22 31.8899 38.22 34.7099C38.25 37.9799 35.67 40.6199 32.52 40.6199Z" fill="#0D062D"/>
<path d="M30 43.0199C28.77 43.0199 27.75 41.9999 27.75 40.7699V38.5499C27.75 37.3199 28.77 36.2999 30 36.2999C31.23 36.2999 32.25 37.3199 32.25 38.5499V40.7699C32.25 42.0299 31.23 43.0199 30 43.0199Z" fill="#0D062D"/>
<path d="M30 23.8201C28.77 23.8201 27.75 22.8001 27.75 21.5701V19.2301C27.75 18.0001 28.77 16.9801 30 16.9801C31.23 16.9801 32.25 18.0001 32.25 19.2301V21.5701C32.25 22.8001 31.23 23.8201 30 23.8201Z" fill="#0D062D"/>
<path d="M29.97 56.16C15.51 56.16 3.75 44.4 3.75 29.94C3.75 15.48 15.51 3.71997 29.97 3.71997C44.43 3.71997 56.19 15.48 56.19 29.94C56.19 44.4 44.4 56.16 29.97 56.16ZM29.97 8.24997C18 8.24997 8.25 18 8.25 29.97C8.25 41.94 18 51.66 29.97 51.66C41.94 51.66 51.69 41.91 51.69 29.94C51.69 17.97 41.94 8.24997 29.97 8.24997Z" fill="#0D062D"/>
<path d="M51.0601 68.1601C45.5101 68.1601 40.2901 65.4601 37.0801 60.9001C36.3601 59.8801 36.6001 58.4701 37.6201 57.7501C38.6401 57.0301 40.0501 57.2701 40.7701 58.2901C43.1401 61.6501 46.9801 63.6301 51.0601 63.6301C58.0201 63.6301 63.6601 57.9901 63.6601 51.0301C63.6601 46.9801 61.6801 43.1401 58.3801 40.7701C57.3601 40.0501 57.1501 38.6401 57.8701 37.6201C58.5901 36.6001 60.0001 36.3901 61.0201 37.1101C65.4901 40.3201 68.1601 45.5101 68.1601 51.0301C68.1601 60.5101 60.5101 68.1601 51.0601 68.1601Z" fill="#0D062D"/>
</svg>
