<svg width="72" height="72" viewBox="0 0 72 72" fill="none" xmlns="http://www.w3.org/2000/svg">
<path d="M66 18.9299H36C34.77 18.9299 33.75 17.9099 33.75 16.6799C33.75 15.4499 34.77 14.4299 36 14.4299H66C67.23 14.4299 68.25 15.4499 68.25 16.6799C68.25 17.9399 67.23 18.9299 66 18.9299Z" fill="#0D062D"/>
<path d="M59.3393 33.75H42.6893C36.1193 33.75 33.7793 31.44 33.7793 24.9V12.6C33.7793 6.06 36.1193 3.75 42.6893 3.75H59.3393C65.9093 3.75 68.2493 6.06 68.2493 12.6V24.93C68.2493 31.44 65.9093 33.75 59.3393 33.75ZM42.6593 8.25C38.5793 8.25 38.2493 8.58 38.2493 12.6V24.93C38.2493 28.95 38.5793 29.28 42.6593 29.28H59.3092C63.3892 29.28 63.7192 28.95 63.7192 24.93V12.6C63.7192 8.58 63.3892 8.25 59.3092 8.25H42.6593Z" fill="#0D062D"/>
<path d="M36 53.4299H6C4.77 53.4299 3.75 52.4099 3.75 51.1799C3.75 49.9499 4.77 48.9299 6 48.9299H36C37.23 48.9299 38.25 49.9499 38.25 51.1799C38.25 52.4399 37.23 53.4299 36 53.4299Z" fill="#0D062D"/>
<path d="M29.3393 68.25H12.6893C6.1193 68.25 3.7793 65.94 3.7793 59.4V47.1C3.7793 40.56 6.1193 38.25 12.6893 38.25H29.3393C35.9093 38.25 38.2493 40.56 38.2493 47.1V59.43C38.2493 65.94 35.9093 68.25 29.3393 68.25ZM12.6593 42.75C8.57927 42.75 8.24927 43.08 8.24927 47.1V59.43C8.24927 63.45 8.57927 63.78 12.6593 63.78H29.3092C33.3892 63.78 33.7192 63.45 33.7192 59.43V47.1C33.7192 43.08 33.3892 42.75 29.3092 42.75H12.6593Z" fill="#0D062D"/>
<path d="M45.0006 68.25C44.1906 68.25 43.4406 67.8 43.0506 67.11C42.6606 66.39 42.6605 65.55 43.0805 64.83L46.2306 59.58C46.8606 58.53 48.2406 58.17 49.3206 58.8C50.4006 59.43 50.7306 60.81 50.1006 61.89L49.2906 63.24C57.5706 61.29 63.7806 53.85 63.7806 44.97C63.7806 43.74 64.8006 42.72 66.0306 42.72C67.2606 42.72 68.2806 43.74 68.2806 44.97C68.2506 57.81 57.8106 68.25 45.0006 68.25Z" fill="#0D062D"/>
<path d="M6 29.25C4.77 29.25 3.75 28.23 3.75 27C3.75 14.19 14.19 3.75 27 3.75C27.81 3.75 28.56 4.2 28.95 4.89C29.34 5.61 29.34 6.45 28.92 7.17L25.77 12.42C25.14 13.47 23.76 13.83 22.68 13.2C21.6 12.57 21.27 11.19 21.9 10.11L22.71 8.75999C14.43 10.71 8.21997 18.15 8.21997 27.03C8.24997 28.23 7.23 29.25 6 29.25Z" fill="#0D062D"/>
</svg>
