<svg width="72" height="72" viewBox="0 0 72 72" fill="none" xmlns="http://www.w3.org/2000/svg">
<path d="M54.3 53.25H17.7C10.74 53.25 6.75 49.26 6.75 42.3V6C6.75 4.77 7.77 3.75 9 3.75H63C64.23 3.75 65.25 4.77 65.25 6V42.3C65.25 49.26 61.26 53.25 54.3 53.25ZM11.25 8.25V42.3C11.25 46.77 13.23 48.75 17.7 48.75H54.27C58.74 48.75 60.72 46.77 60.72 42.3V8.25H11.25Z" fill="#0D062D"/>
<path d="M66 8.25H6C4.77 8.25 3.75 7.23 3.75 6C3.75 4.77 4.77 3.75 6 3.75H66C67.23 3.75 68.25 4.77 68.25 6C68.25 7.23 67.23 8.25 66 8.25Z" fill="#0D062D"/>
<path d="M24.0008 68.25C23.1608 68.25 22.3808 67.8 21.9908 67.02C21.4208 65.91 21.8708 64.56 23.0108 63.99L33.7508 58.62V51C33.7508 49.77 34.7708 48.75 36.0008 48.75C37.2308 48.75 38.2508 49.77 38.2508 51V60C38.2508 60.84 37.7708 61.62 36.9908 62.01L24.9908 68.01C24.6908 68.16 24.3308 68.25 24.0008 68.25Z" fill="#0D062D"/>
<path d="M47.9999 68.2498C47.6699 68.2498 47.3099 68.1598 47.0099 68.0098L35.0099 62.0098C33.8999 61.4398 33.4498 60.0898 33.9898 58.9798C34.5598 57.8698 35.9098 57.4198 37.0198 57.9598L49.0198 63.9598C50.1298 64.5298 50.5798 65.8797 50.0398 66.9897C49.6198 67.7997 48.8099 68.2498 47.9999 68.2498Z" fill="#0D062D"/>
<path d="M22.4998 35.2498C21.8698 35.2498 21.2098 34.9798 20.7598 34.4398C19.9498 33.4798 20.0997 32.0698 21.0597 31.2598L30.5098 23.3698C31.3798 22.6498 32.4898 22.3498 33.5398 22.5298C34.6198 22.7098 35.5498 23.3697 36.1198 24.3297L39.2698 29.5797L48.0597 22.2598C49.0197 21.4798 50.4297 21.5998 51.2397 22.5598C52.0497 23.5198 51.8998 24.9297 50.9398 25.7397L41.4897 33.6298C40.6197 34.3498 39.5098 34.6498 38.4598 34.4698C37.3798 34.2898 36.4498 33.6298 35.8798 32.6698L32.7298 27.4198L23.9398 34.7397C23.5198 35.0697 23.0098 35.2498 22.4998 35.2498Z" fill="#0D062D"/>
</svg>
