<svg width="72" height="72" viewBox="0 0 72 72" fill="none" xmlns="http://www.w3.org/2000/svg">
<path d="M35.9995 68.2502C35.2795 68.2502 34.5596 68.1602 33.8696 67.9502C18.2996 63.6602 7.01953 49.1101 7.01953 33.3301V20.1601C7.01953 16.8001 9.44955 13.1702 12.5695 11.8802L29.2796 5.04015C33.6296 3.27015 38.3995 3.27015 42.7195 5.04015L59.4295 11.8802C62.5495 13.1702 64.9796 16.8001 64.9796 20.1601V33.3301C64.9796 49.0801 53.6695 63.6302 38.1295 67.9502C37.4395 68.1602 36.7195 68.2502 35.9995 68.2502ZM35.9995 8.25017C34.2895 8.25017 32.6095 8.58022 30.9895 9.24022L14.2796 16.0801C12.8396 16.6801 11.5195 18.6301 11.5195 20.1901V33.3602C11.5195 47.1302 21.4195 59.8502 35.0695 63.6302C35.6695 63.8102 36.3295 63.8102 36.9295 63.6302C50.5795 59.8502 60.4796 47.1302 60.4796 33.3602V20.1901C60.4796 18.6301 59.1595 16.6801 57.7195 16.0801L41.0096 9.24022C39.3896 8.58022 37.7095 8.25017 35.9995 8.25017Z" fill="#0D062D"/>
<path d="M36 39.75C31.44 39.75 27.75 36.06 27.75 31.5C27.75 26.94 31.44 23.25 36 23.25C40.56 23.25 44.25 26.94 44.25 31.5C44.25 36.06 40.56 39.75 36 39.75ZM36 27.75C33.93 27.75 32.25 29.43 32.25 31.5C32.25 33.57 33.93 35.25 36 35.25C38.07 35.25 39.75 33.57 39.75 31.5C39.75 29.43 38.07 27.75 36 27.75Z" fill="#0D062D"/>
<path d="M36 48.75C34.77 48.75 33.75 47.73 33.75 46.5V37.5C33.75 36.27 34.77 35.25 36 35.25C37.23 35.25 38.25 36.27 38.25 37.5V46.5C38.25 47.73 37.23 48.75 36 48.75Z" fill="#0D062D"/>
</svg>
